<svg width="110" height="18" viewBox="0 0 110 18" fill="none" xmlns="http://www.w3.org/2000/svg">
<path d="M30.2436 12.7443V6.48475C30.2436 5.28909 30.5203 4.34667 31.0735 3.65673C31.6276 2.96678 32.3207 2.62181 33.1521 2.62181C34.7831 2.62181 35.5987 3.81746 35.5987 6.20877V12.7443H38.4572V5.48091C38.4572 3.64991 38.0793 2.28139 37.3212 1.37385C36.5639 0.466303 35.4823 0.0129108 34.0757 0.0129108C33.1521 0.0129108 32.3071 0.190325 31.5422 0.545912C30.7815 0.897246 30.1175 1.42884 29.6072 2.09488H29.5574C28.8166 0.706647 27.5771 0.0129108 25.8372 0.0129108C25.1048 0.0129108 24.3996 0.177436 23.7216 0.508003C23.0326 0.847121 22.4256 1.33306 21.9432 1.93187H21.9054V0.20094H19.0468V12.7314H21.9054V6.48475C21.9054 5.28909 22.1865 4.34667 22.7481 3.65673C23.3097 2.96678 24.0277 2.62181 24.9015 2.62181C26.5567 2.62181 27.3851 3.81746 27.3851 6.20877V12.7443H30.2436V12.7443ZM46.1923 12.9323C47.8899 12.9323 49.2134 12.3053 50.1619 11.0505H50.1997V12.7314H52.9328V0.20094H50.0743V1.70593H50.0244C49.0758 0.576998 47.7909 0.0129108 46.1674 0.0129108C45.3649 0.00719383 44.5697 0.166745 43.8312 0.481692C43.0926 0.796638 42.4263 1.26028 41.8736 1.84392C41.3407 2.41255 40.9212 3.1025 40.6128 3.91375C40.301 4.74743 40.1444 5.63148 40.151 6.5219C40.151 7.47569 40.3045 8.35366 40.6121 9.15658C40.9205 9.95949 41.3407 10.6365 41.8736 11.1885C42.4155 11.7468 43.0683 12.1849 43.7896 12.4744C44.5532 12.7833 45.3698 12.9389 46.1931 12.9323H46.1923ZM46.6421 10.3234C45.5847 10.3234 44.7238 9.9701 44.0579 9.26348C43.3928 8.55685 43.0594 7.64704 43.0594 6.53479C43.0594 5.35581 43.4026 4.40885 44.0889 3.69388C44.7759 2.97892 45.6308 2.62181 46.6542 2.62181C47.6692 2.62181 48.512 2.9956 49.1824 3.74392C49.8521 4.493 50.1876 5.42329 50.1876 6.53479C50.1876 7.64704 49.8437 8.55685 49.1575 9.26348C48.4704 9.9701 47.6322 10.3234 46.6421 10.3234V10.3234ZM67.134 12.7443V5.35581C67.134 3.54149 66.7289 2.19723 65.9172 1.32305C65.1069 0.449623 63.9845 0.0129108 62.5537 0.0129108C61.7578 0.00858546 60.9702 0.175335 60.2439 0.501938C59.5214 0.827114 58.8814 1.31177 58.3717 1.91974H58.3339V0.200182H55.4754V12.7306H58.3339V6.43471C58.3339 5.23071 58.6272 4.29436 59.2137 3.62489C59.801 2.95617 60.5848 2.62181 61.5666 2.62181C62.0163 2.62181 62.4011 2.68019 62.7215 2.79695C63.042 2.91447 63.3232 3.10477 63.5643 3.36786C63.8061 3.63171 63.9845 3.98881 64.1009 4.44069C64.2173 4.89181 64.2755 5.44376 64.2755 6.0958V12.7443H67.134V12.7443ZM74.8571 12.9323C76.5547 12.9323 77.8774 12.3053 78.8267 11.0505H78.8645V12.7314H81.5975V0.20094H78.739V1.70593H78.6891C77.7406 0.576998 76.4549 0.0129108 74.8321 0.0129108C74.0295 0.00708986 73.2342 0.166591 72.4955 0.48154C71.7568 0.79649 71.0904 1.26018 70.5375 1.84392C70.0054 2.41255 69.5852 3.1025 69.2768 3.91375C68.9652 4.74748 68.8089 5.63153 68.8158 6.5219C68.8158 7.47569 68.9692 8.35366 69.2768 9.15658C69.5852 9.95949 70.0054 10.6365 70.5375 11.1885C71.0797 11.7469 71.7327 12.185 72.4543 12.4744C73.2177 12.7832 74.034 12.9388 74.8571 12.9323V12.9323ZM75.306 10.3234C74.2494 10.3234 73.3878 9.9701 72.7226 9.26348C72.0567 8.55685 71.7234 7.64704 71.7234 6.53479C71.7234 5.35581 72.0673 4.40885 72.7536 3.69388C73.4399 2.97892 74.2955 2.62181 75.3189 2.62181C76.334 2.62181 77.1767 2.9956 77.8464 3.74392C78.516 4.493 78.8516 5.42329 78.8516 6.53479C78.8516 7.64704 78.5077 8.55685 77.8214 9.26348C77.1351 9.9701 76.2962 10.3234 75.306 10.3234V10.3234ZM89.7197 18C90.6266 18 91.4384 17.8939 92.1534 17.68C92.8692 17.467 93.4708 17.1698 93.9576 16.7892C94.4471 16.4057 94.8583 15.931 95.1684 15.3911C95.4925 14.8291 95.7261 14.2194 95.8607 13.5844C96.0028 12.9323 96.0731 12.2174 96.0731 11.4395V0.20094H93.2146V1.5179H93.1647C92.6526 1.0266 92.048 0.642562 91.3863 0.38821C90.7192 0.129696 90.01 -0.00194446 89.2949 2.17032e-05C88.1551 2.17032e-05 87.1317 0.271451 86.2247 0.815066C85.3177 1.35868 84.6118 2.11383 84.1084 3.07975C83.605 4.04492 83.3533 5.13063 83.3533 6.33462C83.3533 7.5553 83.6179 8.63798 84.1462 9.58343C84.6745 10.5281 85.4009 11.2537 86.3245 11.7594C87.2481 12.2651 88.2881 12.5184 89.4453 12.5184C90.9925 12.5184 92.2539 12.0081 93.2275 10.9883H93.2773V12.3174C93.2773 13.2045 92.9523 13.9399 92.3038 14.5253C91.6538 15.1106 90.7393 15.4032 89.5572 15.4032C88.7499 15.4032 88.041 15.3032 87.4287 15.1022C86.8173 14.9013 86.1121 14.5882 85.3132 14.1621L84.639 16.6952C85.3381 17.1137 86.1249 17.4352 86.9987 17.6611C87.8724 17.887 88.7794 18 89.7197 18V18ZM89.8194 9.8723C88.7877 9.8723 87.9367 9.54325 87.267 8.88666C86.5966 8.23084 86.2617 7.35059 86.2617 6.24668C86.2617 5.18522 86.5905 4.31938 87.2481 3.64991C87.9057 2.98119 88.7628 2.64683 89.8194 2.64683C90.8262 2.64683 91.6652 2.97664 92.3348 3.63777C93.0045 4.29815 93.3401 5.15565 93.3401 6.20877C93.3401 7.27098 93.0128 8.14668 92.3598 8.83662C91.7067 9.52657 90.8594 9.87154 89.8194 9.87154V9.8723ZM104.245 12.9323C105.411 12.9323 106.436 12.7193 107.322 12.2924C108.209 11.8663 108.934 11.2893 109.5 10.5615L107.504 8.84345C106.721 9.82984 105.685 10.3234 104.395 10.3234C103.48 10.3234 102.704 10.0679 102.067 9.55765C101.43 9.04816 101.021 8.34987 100.837 7.46356H109.925C109.975 7.16256 110 6.78119 110 6.32174C110 5.1094 109.754 4.02672 109.263 3.07293C108.787 2.135 108.05 1.35535 107.141 0.827956C106.218 0.28434 105.152 0.0129108 103.946 0.0129108C103.119 0.00670117 102.3 0.166533 101.536 0.482983C100.788 0.79687 100.143 1.23358 99.6013 1.79388C99.0609 2.35417 98.6361 3.03578 98.3285 3.83793C98.0209 4.64161 97.8667 5.51503 97.8667 6.45973C97.8667 7.73954 98.1456 8.87453 98.7027 9.86547C99.2605 10.8564 100.022 11.6154 100.988 12.1423C101.953 12.6692 103.039 12.9323 104.245 12.9323ZM107.129 5.14276H100.888C101.087 4.33985 101.474 3.7189 102.048 3.27991C102.622 2.84093 103.305 2.62181 104.095 2.62181C104.894 2.62181 105.554 2.84775 106.074 3.29887C106.594 3.75074 106.946 4.36487 107.129 5.14276Z" fill="#242D52"/>
<path fill-rule="evenodd" clip-rule="evenodd" d="M2.10573 7.79865C3.26819 7.79865 4.21071 8.76836 4.21071 9.96477C4.21071 11.1604 3.26819 12.1309 2.10573 12.1309C0.942516 12.1309 0 11.1604 0 9.96477C0 8.76836 0.942516 7.79865 2.10573 7.79865V7.79865ZM2.10573 0C3.26819 0 4.20995 0.970472 4.20995 2.16612C4.20995 3.36253 3.26744 4.33225 2.10498 4.33225C0.942516 4.33225 0 3.36253 0 2.16612C0 0.970472 0.942516 0 2.10573 0ZM9.68516 0C10.8484 0 11.7909 0.970472 11.7909 2.16612C11.7909 3.36253 10.8484 4.33225 9.68516 4.33225C8.5227 4.33225 7.58019 3.36253 7.58019 2.16612C7.58019 0.970472 8.5227 0 9.68516 0Z" fill="#F3603C"/>
<path opacity="0.5" d="M9.68516 12.2174C10.8481 12.2174 11.7909 11.2476 11.7909 10.0513C11.7909 8.85494 10.8481 7.88513 9.68516 7.88513C8.52219 7.88513 7.57942 8.85494 7.57942 10.0513C7.57942 11.2476 8.52219 12.2174 9.68516 12.2174Z" fill="#F3603C"/>
</svg>
